<?xml version="1.0" standalone="no"?>
<!DOCTYPE svg PUBLIC "-//W3C//DTD SVG 20010904//EN"
 "http://www.w3.org/TR/2001/REC-SVG-20010904/DTD/svg10.dtd">
<svg version="1.0" xmlns="http://www.w3.org/2000/svg"
 width="512.000000pt" height="512.000000pt" viewBox="0 0 512.000000 512.000000"
 preserveAspectRatio="xMidYMid meet">
<metadata>
Created by potrace 1.11, written by Peter Selinger 2001-2013
</metadata>
<g transform="translate(0.000000,512.000000) scale(0.100000,-0.100000)"
fill="#000000" stroke="none">
<path d="M440 5109 c-132 -19 -256 -93 -334 -199 -55 -74 -84 -149 -97 -249
-6 -49 -9 -810 -7 -2156 l3 -2080 22 -65 c55 -162 177 -282 337 -333 l71 -22
2125 0 2125 0 71 22 c163 52 285 174 337 338 l22 70 0 2125 0 2125 -22 71
c-51 160 -171 282 -333 337 l-65 22 -2100 1 c-1155 1 -2125 -2 -2155 -7z
m2781 -875 c25 -23 24 -35 -10 -86 -15 -24 -44 -73 -65 -109 l-36 -66 133 -42
c235 -76 488 -189 642 -288 108 -70 235 -204 278 -294 109 -229 39 -464 -190
-638 -94 -72 -399 -221 -559 -274 l-132 -44 127 -17 c233 -32 518 -117 686
-204 69 -36 110 -67 176 -132 109 -107 148 -183 156 -299 10 -142 -43 -257
-178 -392 -222 -219 -499 -353 -864 -415 -126 -22 -490 -30 -667 -15 -210 18
-501 76 -630 126 -15 6 -16 0 -12 -62 13 -158 -64 -168 -110 -14 -9 30 -16 69
-16 87 0 30 -6 35 -78 75 -90 49 -175 106 -216 145 -33 31 -58 86 -50 108 13
33 39 21 232 -105 l107 -70 7 123 c22 361 168 924 408 1573 131 355 286 728
375 905 19 38 35 74 35 79 0 30 -482 115 -741 130 -268 16 -473 -7 -678 -75
-198 -66 -313 -148 -393 -280 -69 -113 -83 -170 -82 -339 1 -121 5 -165 23
-230 47 -174 178 -390 324 -534 l65 -63 11 35 c15 44 33 51 64 27 28 -23 87
-146 94 -200 8 -54 -25 -75 -106 -67 -92 8 -163 49 -266 152 -201 201 -360
526 -390 800 -8 82 10 233 41 324 63 186 202 337 390 421 160 72 345 121 538
141 151 16 521 6 711 -20 136 -18 408 -65 445 -76 10 -3 26 16 50 63 48 93 94
142 134 143 17 1 42 5 56 10 40 13 139 3 161 -17z"/>
<path d="M2968 3718 c-135 -247 -277 -562 -403 -888 -66 -174 -155 -425 -155
-440 0 -5 15 -5 33 0 17 5 95 16 172 25 162 18 288 42 470 90 163 42 404 125
512 175 178 83 315 197 369 306 25 51 29 70 29 144 0 74 -4 93 -31 151 -37 76
-130 181 -220 245 -82 59 -379 202 -534 258 -193 69 -165 76 -242 -66z"/>
<path d="M2850 2273 c-388 -42 -494 -54 -496 -56 -7 -7 -113 -362 -155 -517
-44 -166 -98 -405 -112 -501 l-5 -36 117 -37 c237 -74 481 -106 809 -106 305
0 494 25 688 90 330 112 556 386 514 622 -28 152 -148 283 -343 373 -231 107
-766 195 -1017 168z"/>
</g>
</svg>
